<svg id="组件_90_1" data-name="组件 90 – 1" xmlns="http://www.w3.org/2000/svg" width="136" height="136" viewBox="0 0 136 136">
  <defs>
    <style>
      .cls-1 {
        fill: #fff6e9;
        stroke: #fd7d3e;
        stroke-width: 2px;
      }

      .cls-2 {
        fill: #fff;
      }

      .cls-3, .cls-5 {
        stroke: none;
      }

      .cls-4 {
        fill: none;
      }

      .cls-5 {
        fill: #fd7d3e;
      }
    </style>
  </defs>
  <g id="组_748" data-name="组 748" transform="translate(-58 -349)">
    <g id="椭圆_225" data-name="椭圆 225" class="cls-1" transform="translate(58 349)">
      <circle class="cls-3" cx="68" cy="68" r="68"/>
      <circle class="cls-4" cx="68" cy="68" r="67"/>
    </g>
  </g>
  <g id="减去_46" data-name="减去 46" class="cls-2" transform="translate(13810.168 6084.037)">
    <path class="cls-3" d="M -13704.2724609375 -5990.8740234375 L -13735.89453125 -5990.8740234375 L -13730.787109375 -5998.29443359375 L -13720.958984375 -5998.29443359375 C -13719.873046875 -5998.29443359375 -13718.9033203125 -5998.85595703125 -13718.36328125 -5999.7958984375 C -13717.8212890625 -6000.73095703125 -13717.8193359375 -6001.85205078125 -13718.359375 -6002.79150390625 L -13722.6142578125 -6010.16796875 L -13717.8271484375 -6017.12255859375 L -13703.4111328125 -5992.37939453125 C -13703.224609375 -5992.06005859375 -13703.22265625 -5991.69677734375 -13703.404296875 -5991.3828125 L -13703.40625 -5991.37939453125 L -13703.408203125 -5991.37646484375 C -13703.5908203125 -5991.05712890625 -13703.90625 -5990.8740234375 -13704.2724609375 -5990.8740234375 Z M -13746.1787109375 -5990.8740234375 L -13777.7958984375 -5990.8740234375 C -13778.1630859375 -5990.8740234375 -13778.478515625 -5991.05712890625 -13778.6611328125 -5991.37646484375 L -13778.662109375 -5991.37890625 L -13778.6640625 -5991.3818359375 C -13778.8466796875 -5991.697265625 -13778.845703125 -5992.0615234375 -13778.66015625 -5992.38134765625 L -13764.2451171875 -6017.12158203125 L -13759.45703125 -6010.1650390625 L -13763.708984375 -6002.79248046875 C -13764.25 -6001.85986328125 -13764.2509765625 -6000.73876953125 -13763.7099609375 -5999.7958984375 C -13763.1630859375 -5998.8544921875 -13762.1923828125 -5998.29443359375 -13761.1103515625 -5998.29443359375 L -13751.2861328125 -5998.29443359375 L -13746.1787109375 -5990.8740234375 Z M -13749.759765625 -6026.97802734375 L -13758.501953125 -6026.978515625 L -13741.8994140625 -6055.47265625 C -13741.7158203125 -6055.78759765625 -13741.400390625 -6055.96826171875 -13741.0341796875 -6055.96826171875 C -13740.6689453125 -6055.96826171875 -13740.353515625 -6055.78759765625 -13740.169921875 -6055.47216796875 L -13723.5703125 -6026.97998046875 L -13732.310546875 -6026.978515625 L -13738.435546875 -6037.60009765625 C -13738.9833984375 -6038.54248046875 -13739.9541015625 -6039.103515625 -13741.0341796875 -6039.103515625 C -13742.1201171875 -6039.103515625 -13743.0927734375 -6038.541015625 -13743.634765625 -6037.59912109375 L -13749.759765625 -6026.97802734375 Z"/>
    <path class="cls-5" d="M -13704.275390625 -5991.8740234375 L -13704.2744140625 -5991.87548828125 C -13704.2744140625 -5991.8759765625 -13704.2744140625 -5991.8759765625 -13704.275390625 -5991.8759765625 L -13717.8974609375 -6015.2568359375 L -13721.4326171875 -6010.12060546875 L -13717.4931640625 -6003.2900390625 C -13716.7724609375 -6002.0380859375 -13716.7744140625 -6000.544921875 -13717.498046875 -5999.2939453125 C -13718.21875 -5998.0419921875 -13719.5126953125 -5997.29443359375 -13720.958984375 -5997.29443359375 L -13730.2607421875 -5997.29443359375 L -13733.9921875 -5991.8740234375 L -13704.275390625 -5991.8740234375 M -13748.0810546875 -5991.8740234375 L -13751.8125 -5997.29443359375 L -13761.1103515625 -5997.29443359375 C -13762.552734375 -5997.29443359375 -13763.84765625 -5998.04052734375 -13764.572265625 -5999.2900390625 L -13764.5751953125 -5999.2939453125 L -13764.5771484375 -5999.29833984375 C -13765.2978515625 -6000.55419921875 -13765.296875 -6002.04833984375 -13764.5732421875 -6003.2958984375 L -13760.638671875 -6010.11767578125 L -13764.1748046875 -6015.255859375 L -13777.794921875 -5991.8798828125 C -13777.794921875 -5991.87939453125 -13777.7958984375 -5991.87890625 -13777.7958984375 -5991.87841796875 L -13777.7958984375 -5991.8779296875 L -13777.7939453125 -5991.8740234375 L -13748.0810546875 -5991.8740234375 M -13750.3369140625 -6027.97802734375 L -13744.5009765625 -6038.09814453125 C -13743.7783203125 -6039.35400390625 -13742.482421875 -6040.103515625 -13741.0341796875 -6040.103515625 C -13739.5947265625 -6040.103515625 -13738.30078125 -6039.35693359375 -13737.5732421875 -6038.10595703125 L -13737.5712890625 -6038.10302734375 L -13737.5693359375 -6038.099609375 L -13731.732421875 -6027.978515625 L -13725.3095703125 -6027.9794921875 L -13741.033203125 -6054.96826171875 C -13741.033203125 -6054.96826171875 -13741.0341796875 -6054.96826171875 -13741.0341796875 -6054.96826171875 C -13741.03515625 -6054.96826171875 -13741.03515625 -6054.96826171875 -13741.0361328125 -6054.96826171875 L -13756.7626953125 -6027.978515625 L -13750.3369140625 -6027.97802734375 M -13704.2724609375 -5989.8740234375 L -13737.796875 -5989.8740234375 L -13731.3125 -5999.29443359375 L -13720.958984375 -5999.29443359375 C -13720.236328125 -5999.29443359375 -13719.58984375 -5999.66796875 -13719.23046875 -6000.2939453125 C -13718.8681640625 -6000.9189453125 -13718.8662109375 -6001.66650390625 -13719.2265625 -6002.29296875 L -13723.7958984375 -6010.21484375 L -13717.7568359375 -6018.98828125 L -13702.546875 -5992.8828125 C -13702.1796875 -5992.25439453125 -13702.1767578125 -5991.505859375 -13702.5400390625 -5990.88037109375 C -13702.900390625 -5990.25 -13703.5478515625 -5989.8740234375 -13704.2724609375 -5989.8740234375 Z M -13744.2763671875 -5989.8740234375 L -13744.2783203125 -5989.8740234375 L -13777.7958984375 -5989.8740234375 C -13778.5205078125 -5989.8740234375 -13779.1689453125 -5990.25 -13779.529296875 -5990.88037109375 C -13779.8916015625 -5991.505859375 -13779.8896484375 -5992.25439453125 -13779.525390625 -5992.8828125 L -13764.3154296875 -6018.9873046875 L -13758.275390625 -6010.2119140625 L -13762.8427734375 -6002.29296875 C -13763.2041015625 -6001.67041015625 -13763.2041015625 -6000.92333984375 -13762.8427734375 -6000.2939453125 C -13762.4794921875 -5999.66796875 -13761.83203125 -5999.29443359375 -13761.1103515625 -5999.29443359375 L -13750.7607421875 -5999.29443359375 L -13744.27734375 -5989.87548828125 L -13744.2763671875 -5989.8740234375 Z M -13749.181640625 -6025.97802734375 L -13749.1826171875 -6025.97802734375 L -13760.2421875 -6025.978515625 L -13742.763671875 -6055.97607421875 C -13742.4013671875 -6056.59716796875 -13741.7548828125 -6056.96826171875 -13741.0341796875 -6056.96826171875 C -13740.314453125 -6056.96826171875 -13739.66796875 -6056.59716796875 -13739.3056640625 -6055.97607421875 L -13721.830078125 -6025.97998046875 L -13732.8876953125 -6025.978515625 L -13739.3017578125 -6037.1005859375 C -13739.6669921875 -6037.728515625 -13740.314453125 -6038.103515625 -13741.0341796875 -6038.103515625 C -13741.7587890625 -6038.103515625 -13742.40625 -6037.728515625 -13742.767578125 -6037.1005859375 L -13749.181640625 -6025.978515625 L -13749.181640625 -6025.97802734375 Z"/>
  </g>
</svg>
